<svg width="34" height="21" viewBox="0 0 34 21" fill="none" xmlns="http://www.w3.org/2000/svg">
<path d="M10.8672 17.4955C11.1224 17.276 11.3777 17.0566 11.6045 16.8371L11.718 3.77986C11.4911 3.53298 11.2359 3.2861 10.9806 3.06665L10.8672 17.4955Z" fill="white"/>
<path d="M8.99842 18.3719L0.972812 8.30469V9.4568L0.859375 20.1275C1.08625 20.4019 1.34148 20.6487 1.59671 20.8682L1.68179 10.3895L8.31781 18.7285C8.54468 18.6188 8.77155 18.5091 8.99842 18.3719Z" fill="white"/>
<path d="M20.8652 9.86748C21.8294 9.1817 22.3682 8.19418 22.3682 7.0695C22.3682 4.54583 20.298 3.03711 16.8098 3.03711H14.9948L14.5127 3.66803H16.8098C19.2487 3.66803 21.7443 4.51839 21.7443 7.09693C21.7443 8.55078 20.695 9.53831 19.3338 9.97721V10.0046C21.0637 10.3612 22.3398 11.5134 22.3398 13.4335C22.3398 16.0395 18.9367 16.8624 16.8382 16.8624H14.4844V16.8899L15.1083 17.4934H16.8382C19.7875 17.4934 22.9637 16.2315 22.9637 13.461C22.9637 11.8151 22.198 10.5533 20.8652 9.86748Z" fill="white"/>
<path d="M18.7596 7.37364C18.7596 6.30382 18.079 5.81006 16.8596 5.81006H14.5625V8.90979H16.8596C18.079 8.93722 18.7596 8.44346 18.7596 7.37364ZM15.2148 6.44098H16.8596C18.0223 6.44098 18.1357 6.93474 18.1357 7.37364C18.1357 7.81254 18.0507 8.3063 16.8596 8.3063H15.2148V6.44098Z" fill="white"/>
<path d="M14.6016 14.6423H16.8986C18.2882 14.6423 19.2241 14.3954 19.2241 12.8867C19.2241 11.378 18.2882 11.1311 16.8986 11.1311H14.6016V14.6423ZM15.2255 11.7346H16.8703C18.3166 11.7346 18.5435 12.0089 18.5435 12.8593C18.5435 13.7096 18.3166 13.9839 16.8703 13.9839H15.2255V11.7346Z" fill="white"/>
<path d="M26.2894 16.4778V3.83203H22.4609L23.0565 4.46295H25.6655V16.4778V17.1087H26.2894V16.4778Z" fill="white"/>
<path d="M33.2993 0.81665H8.14483C7.86124 1.06353 7.69109 1.22812 7.4075 1.50243L7.29406 10.6096L0.714758 2.3528C0.487886 2.46252 0.261013 2.57225 0.0625 2.7094L8.00304 12.6944V11.5423L8.14483 1.44757H33.2993V4.27298H29.244V16.5896V17.1108C29.244 17.1108 29.641 17.3302 29.8679 17.4948V16.9462V4.87647H33.2993H33.9516V4.24555V1.44757V0.81665H33.2993Z" fill="white"/>
</svg>
